:SAMPLES-PER-SECOND 30
:FULLY-SPECIFIED
:DEGREES
283
root  11.5472 39.1924 -17.5668 160.021 -76.8572 -166.914
RightUpLeg  14.8509 -9.31105 -0.949486
RightLeg  9.43418 -2.87041 1.83847
RightFoot  -11.5099 -0.0752439 1.27253
RightToes  5.82063e-011 0 -3.6325e-017
Spine  6.36635 0.215381 11.4144
Spine1  9.90421 2.43153 -6.27074
HEad  5.20649 11.0591 -6.74489
LeftShoulder1  -0.203829 4.04686 -31.3457
LeftArm  9.73965 13.717 -42.3556
LeftForeArm  14.2816 -23.2105 -4.3859
LeftHand  -0.0899702 1.84798 2.69595
RightShoulder  -0.548927 -5.20542 25.4781
RightArm  21.1971 1.18135 50.1089
RightForeArm  2.73536 34.4151 7.54827
RightHand  -1.20556 7.51228 -11.1584
LeftUpLeg  -12.8715 3.82106 -0.875434
LeftLeg  1.25462 12.5598 -1.70045
LeftFoot  -3.01741 0.198456 -2.48694
LeftToes  1.81573e-012 2.54609e-010 -3.45981e-011
284
root  10.1581 38.9237 -18.0584 156.298 -77.1928 -163.42
RightUpLeg  18.2353 -9.04035 -0.223699
RightLeg  8.41745 -3.46318 1.88306
RightFoot  -13.0256 -0.0552717 2.27279
RightToes  5.82063e-011 0 -3.6325e-017
Spine  5.34463 0.218461 11.0179
Spine1  10.8367 2.4135 -6.37923
HEad  5.32082 12.8968 -5.58269
LeftShoulder1  -0.135644 3.87202 -30.7362
LeftArm  7.9868 13.7792 -42.5758
LeftForeArm  16.2192 -19.5958 -5.17398
LeftHand  -0.050307 2.01981 1.47683
RightShoulder  -0.581544 -5.28754 25.8553
RightArm  21.7678 1.70595 50.5279
RightForeArm  2.84348 33.5875 7.31668
RightHand  -1.16 6.99469 -11.1771
LeftUpLeg  -11.7439 3.17584 -0.957207
LeftLeg  -6.45644 17.7155 -3.1436
LeftFoot  -3.50223 0.252307 -3.36501
LeftToes  1.81573e-012 2.54609e-010 -3.45981e-011
285
root  8.69395 38.5531 -18.5278 151.958 -77.8655 -159.472
RightUpLeg  21.2237 -9.40487 0.135025
RightLeg  8.99176 -3.68394 1.90821
RightFoot  -14.9088 0.0121379 3.55891
RightToes  5.82063e-011 0 -3.6325e-017
Spine  4.70041 0.0959236 10.021
Spine1  11.3179 2.06072 -5.76479
HEad  5.27972 15.9567 -3.87214
LeftShoulder1  -0.175161 3.97085 -31.3761
LeftArm  4.41714 13.0733 -41.393
LeftForeArm  20.3971 -15.1694 -7.20598
LeftHand  -0.0410242 4.08342 1.79382
RightShoulder  -0.549747 -5.19268 25.7742
RightArm  22.169 1.55873 51.3038
RightForeArm  2.62551 31.4906 6.77438
RightHand  -1.19131 7.82541 -10.7774
LeftUpLeg  -12.1765 3.03991 -1.20842
LeftLeg  -5.76986 20.921 -3.10199
LeftFoot  -3.86493 0.229638 -2.97592
LeftToes  1.81573e-012 2.54609e-010 -3.45981e-011
286
root  7.16553 38.1722 -18.9789 150.393 -78.4016 -157.964
RightUpLeg  23.3931 -11.1316 -0.940245
RightLeg  10.913 -1.52202 1.99183
RightFoot  -16.861 0.171251 5.92725
RightToes  5.82063e-011 0 -3.6325e-017
Spine  3.47908 0.373912 8.99648
Spine1  12.1051 2.36478 -6.10956
HEad  6.00676 15.5614 -2.09412
LeftShoulder1  -0.230362 4.11609 -31.5145
LeftArm  -0.253164 12.2067 -40.2353
LeftForeArm  25.9067 -10.8386 -8.51476
LeftHand  -0.0439121 3.48497 1.14005
RightShoulder  -0.597266 -5.31596 26.225
RightArm  22.4669 0.573 51.7197
RightForeArm  2.35848 28.6671 6.05676
RightHand  -1.08361 7.62017 -9.99185
LeftUpLeg  -13.7803 4.08199 -1.52202
LeftLeg  0.313756 21.2352 -2.50223
LeftFoot  -1.70377 -0.0557935 0.220104
LeftToes  1.81573e-012 2.54609e-010 -3.45981e-011
287
root  5.57026 37.8989 -19.3763 155.545 -78.239 -163.501
RightUpLeg  25.0949 -13.9381 -4.46968
RightLeg  14.6172 3.84398 1.98485
RightFoot  -17.9098 0.433942 9.47873
RightToes  5.82063e-011 0 -3.6325e-017
Spine  2.48369 1.06664 7.35479
Spine1  12.7379 3.31389 -7.40367
HEad  6.34775 16.1059 -0.613252
LeftShoulder1  -0.286929 4.26608 -31.4951
LeftArm  -3.47785 12.5497 -38.9707
LeftForeArm  30.3123 -7.91293 -8.55623
LeftHand  -0.0141393 4.6551 -1.48738
RightShoulder  -0.614131 -5.33532 26.8096
RightArm  24.6701 -0.618324 52.1919
RightForeArm  0.083502 24.4477 5.3796
RightHand  -1.05761 7.3579 -9.9577
LeftUpLeg  -15.8612 5.04272 -2.91869
LeftLeg  7.89893 19.0009 -0.410154
LeftFoot  4.39935 -1.45256 10.1349
LeftToes  1.81573e-012 2.54609e-010 -3.45981e-011
288
root  4.05276 37.6879 -19.6312 165.977 -78.999 -174.739
RightUpLeg  24.3172 -14.531 -9.06413
RightLeg  23.148 7.65829 3.25857
RightFoot  -17.2162 0.658966 15.8517
RightToes  5.82063e-011 0 -3.6325e-017
Spine  3.25714 1.33965 4.5857
Spine1  11.6447 3.60839 -8.52348
HEad  7.0869 17.1022 -0.251764
LeftShoulder1  -0.343271 4.39897 -32.214
LeftArm  -4.26957 13.0943 -36.8923
LeftForeArm  30.5784 -6.25188 -8.35013
LeftHand  -0.0172944 4.63337 -1.41873
RightShoulder  -0.639342 -5.38572 27.2654
RightArm  25.191 -1.28784 53.0327
RightForeArm  0.255889 18.057 5.95675
RightHand  -0.985678 6.62458 -9.80134
LeftUpLeg  -16.8526 7.33882 -6.52254
LeftLeg  14.4955 16.4374 2.23495
LeftFoot  7.01461 -2.97947 18.1838
LeftToes  1.81573e-012 2.54609e-010 -3.45981e-011
289
root  2.66253 37.6193 -19.8195 176.105 -81.017 174.821
RightUpLeg  20.1262 -12.9741 -11.706
RightLeg  34.9429 7.96692 5.65271
RightFoot  -10.7358 -0.164011 22.1044
RightToes  5.82063e-011 0 -3.6325e-017
Spine  3.91142 1.09733 2.16186
Spine1  10.7317 3.18233 -8.99008
HEad  6.7121 18.6274 -1.43718
LeftShoulder1  -0.386665 4.50441 -32.5131
LeftArm  -5.04228 12.0867 -36.3566
LeftForeArm  30.6917 -4.07339 -7.86798
LeftHand  -0.0199009 4.85649 -1.85557
RightShoulder  -0.68054 -5.50774 27.2808
RightArm  18.1577 -2.02505 53.5868
RightForeArm  10.0249 11.2915 7.82969
RightHand  -0.654993 4.59675 -7.89114
LeftUpLeg  -16.6328 9.86088 -10.0366
LeftLeg  18.7312 12.4607 3.99133
LeftFoot  3.62908 -2.36819 17.7048
LeftToes  1.81573e-012 2.54609e-010 -3.45981e-011
290
root  1.46422 37.6911 -19.943 -174.073 -82.1611 164.891
RightUpLeg  12.7155 -8.69784 -11.4746
RightLeg  48.137 6.47971 7.41399
RightFoot  0.282065 -1.89802 19.0589
RightToes  5.82063e-011 0 -3.6325e-017
Spine  5.26182 1.35115 1.6971
Spine1  9.98134 3.56696 -10.4201
HEad  5.00514 19.8237 -3.97053
LeftShoulder1  -0.35756 4.43344 -32.3081
LeftArm  -5.92837 10.5683 -37.1316
LeftForeArm  30.5866 -3.61854 -7.3579
LeftHand  -0.0167828 4.85001 -2.61553
RightShoulder  -0.601188 -5.28791 26.9576
RightArm  13.3542 -3.90269 53.5894
RightForeArm  15.4316 7.55125 7.56906
RightHand  -0.434157 2.46759 -6.64002
LeftUpLeg  -15.1589 9.22378 -11.3874
LeftLeg  20.1713 12.385 4.04997
LeftFoot  1.32489 -1.98061 17.6097
LeftToes  1.81573e-012 2.54609e-010 -3.45981e-011
